<?xml version="1.0" encoding="UTF-8"?>
<svg width="570px" height="355px" viewBox="0 0 570 355" version="1.1" xmlns="http://www.w3.org/2000/svg" xmlns:xlink="http://www.w3.org/1999/xlink">
    <!-- Generator: Sketch 60 (88103) - https://sketch.com -->
    <title>debit-card</title>
    <desc>Created with Sketch.</desc>
    <defs>
        <rect id="path-1" x="-5.68434189e-14" y="0.339190377" width="569.099974" height="354.899984"></rect>
    </defs>
    <g id="Page-1" stroke="none" stroke-width="1" fill="none" fill-rule="evenodd">
        <g id="Artboard" transform="translate(0.000000, -13.000000)">
            <g id="debit-card" transform="translate(0.000000, 12.000000)">
                <g id="rect" transform="translate(0.183250, 0.712409)">
                    <mask id="mask-2" fill="white">
                        <use xlink:href="#path-1"></use>
                    </mask>
                    <use id="Mask" fill="#F3F4F5" xlink:href="#path-1"></use>
                </g>
                <g id="Chip" transform="translate(85.174998, 194.624990) rotate(-90.000000) translate(-85.174998, -194.624990) translate(55.674998, 156.124990)">
                    <g id="Group" transform="translate(29.757730, 38.545633) rotate(90.000000) translate(-29.757730, -38.545633) translate(-8.242270, 9.545633)">
                        <g id="Rectangle-41" transform="translate(0.050000, 0.000000)" fill="#E1E1E1">
                            <rect id="Rectangle" x="0.787499964" y="0.787499964" width="73.192686" height="55.5143262" rx="8.39999962"></rect>
                        </g>
                        <g id="chip" transform="translate(0.420000, 4.919946)">
                            <g id="Rectangle-42" opacity="0.349934896" transform="translate(47.039998, 12.179999)" fill="#797C8E" fill-rule="nonzero">
                                <polygon id="path-12" transform="translate(13.496291, 2.054839) rotate(1.000000) translate(-13.496291, -2.054839) " points="0.0441128129 1.55453553 26.9228133 1.08536607 26.9484684 2.55514212 0.0697678492 3.02431158"></polygon>
                            </g>
                            <g id="Rectangle-42" opacity="0.349934896" transform="translate(47.039998, 32.339999)" fill="#797C8E" fill-rule="nonzero">
                                <polygon id="path-14" transform="translate(13.496291, 2.144597) rotate(1.000000) translate(-13.496291, -2.144597) " points="0.0441128129 1.64429387 26.9228133 1.17512441 26.9484684 2.64490045 0.0697678492 3.11406992"></polygon>
                            </g>
                            <g id="Rectangle-42" opacity="0.349934896" transform="translate(0.000000, 20.999999)" fill="#797C8E" fill-rule="nonzero">
                                <polygon id="path-16" transform="translate(13.491397, 2.054839) rotate(1.000000) translate(-13.491397, -2.054839) " points="0.0392196241 1.55453553 26.9179201 1.08536607 26.9435752 2.55514212 0.0648746604 3.02431158"></polygon>
                            </g>
                            <g id="Oval-3" transform="translate(26.509999, 0.000000)">
                                <g id="path-20-link" transform="translate(1.050000, 4.150000)" fill-rule="nonzero" stroke="#B3B5BE" stroke-width="1.5">
                                    <path d="M0.0865382265,27.3937029 C1.51608024,33.519648 4.93038312,37.8316732 8.91494961,37.8316732 C12.9203441,37.8316732 16.3494976,33.474451 17.7656154,27.2974908 C18.2132254,25.3450623 16.3386574,21.1675841 16.3386574,18.9316741 C16.3386574,16.727823 18.2202432,12.5795089 17.7847451,10.6499521 C16.380568,4.42848095 12.9384968,0.0316749264 8.91494961,0.0316749264 C4.91532353,0.0316749264 1.49027997,4.37635599 0.0704147165,10.5391812 C-0.381074799,12.4988396 1.49124186,16.6855767 1.49124186,18.9316741 C1.49124186,21.2043677 -0.375149141,25.4152567 0.0865382265,27.3937029 Z" id="path-20"></path>
                                </g>
                                <g id="path-20-link"></g>
                            </g>
                        </g>
                    </g>
                </g>
                <g id="mastercard-2" transform="translate(425.249981, 262.499988)" fill-rule="nonzero">
                    <path d="M98.9262065,50.0498868 L98.9262065,48.8513502 L98.6140876,48.8513502 L98.2530285,49.6738459 L97.8939669,48.8513502 L97.5808492,48.8513502 L97.5808492,50.0498868 L97.8025785,50.0498868 L97.8025785,49.1469892 L98.1401663,49.926038 L98.3698858,49.926038 L98.7074736,49.1449917 L98.7074736,50.0498868 L98.9272053,50.0498868 L98.9262065,50.0498868 Z M96.9461243,50.0498868 L96.9461243,49.0565996 L97.3456364,49.0565996 L97.3456364,48.8543466 L96.3248828,48.8543466 L96.3248828,49.0565996 L96.724395,49.0565996 L96.724395,50.0498868 L96.9441267,50.0498868 L96.9461243,50.0498868 Z" id="Shape" fill="#F79410"></path>
                    <polygon id="Path" fill="#FF5F00" points="63.4510233 55.1901103 36.4410038 55.1901103 36.4410038 6.6493808 63.4515227 6.6493808"></polygon>
                    <path d="M38.1534129,30.9207443 C38.1534129,21.0742673 42.7637834,12.3029775 49.9435166,6.65037958 C44.5087069,2.36534735 37.7872961,0.039713537 30.8668102,0.0499054458 C13.8191262,0.0499054458 0,13.8710628 0,30.9207443 C0,47.9704259 13.8191262,61.791584 30.8668102,61.791584 C37.7874673,61.8018876 44.5090719,59.4762476 49.9435166,55.1911091 C42.7647822,49.5395099 38.1534129,40.7677207 38.1534129,30.9207443" id="Path" fill="#EB001B"></path>
                    <path d="M99.890529,30.9207443 C99.890529,47.9704259 86.0714028,61.7915828 69.0237188,61.7915828 C62.1023304,61.8017072 55.3799932,59.4761181 49.9445154,55.1911091 C57.1257468,49.5385112 61.7361173,40.7677207 61.7361173,30.9207443 C61.7361173,21.0737679 57.1257468,12.3029775 49.9445154,6.65037958 C55.3798588,2.36547681 62.1020021,0.0398939416 69.0232194,0.0499066169 C86.0709034,0.0499066169 99.890529,13.8710628 99.890529,30.9207443" id="Path" fill="#F79E1B"></path>
                </g>
            </g>
        </g>
    </g>
</svg>