<?xml version="1.0" encoding="UTF-8"?>
<svg width="47px" height="42px" viewBox="0 0 47 42" version="1.1" xmlns="http://www.w3.org/2000/svg" xmlns:xlink="http://www.w3.org/1999/xlink">
    <!-- Generator: Sketch 60.1 (88133) - https://sketch.com -->
    <title>add-file</title>
    <desc>Created with Sketch.</desc>
    <g id="Page-1" stroke="none" stroke-width="1" fill="none" fill-rule="evenodd">
        <g id="add-file" fill="#040506" fill-rule="nonzero">
            <path d="M19.75879,31.01123 L6.37305,31.01123 C4.48195087,31.0090423 2.94945772,29.4765491 2.94727,27.58545 L2.94727,6.38721 C2.94966717,4.49627551 4.4821152,2.9640422 6.37305,2.96191 L31.93359,2.96191 C33.8245287,2.96403669 35.3569828,4.49627162 35.35938,6.38721 L35.35938,16.98633 C35.35938,17.5386147 35.8070953,17.98633 36.35938,17.98633 C36.9116647,17.98633 37.35938,17.5386147 37.35938,16.98633 L37.35938,6.38721 C37.3560618,3.3920838 34.9287165,0.964957708 31.93359,0.96191 L6.37305,0.96191 C3.37792513,0.964957718 0.950582698,3.39208541 0.94727,6.38721 L0.94727,27.58545 C0.950543713,30.5806685 3.37783151,33.0079563 6.37305,33.01123 L19.75879,33.01123 C20.3110747,33.01123 20.75879,32.5635147 20.75879,32.01123 C20.75879,31.4589453 20.3110747,31.01123 19.75879,31.01123 Z" id="Path"></path>
            <path d="M25.81738,11.23047 L9.6416,11.23047 C9.08931525,11.23047 8.6416,11.6781853 8.6416,12.23047 C8.6416,12.7827547 9.08931525,13.23047 9.6416,13.23047 L25.81738,13.23047 C26.3696647,13.23047 26.81738,12.7827547 26.81738,12.23047 C26.81738,11.6781853 26.3696647,11.23047 25.81738,11.23047 Z" id="Path"></path>
            <path d="M22.0918,19.59082 L9.6416,19.59082 C9.08931525,19.59082 8.6416,20.0385353 8.6416,20.59082 C8.6416,21.1431047 9.08931525,21.59082 9.6416,21.59082 L22.0918,21.59082 C22.6440847,21.59082 23.0918,21.1431047 23.0918,20.59082 C23.0918,20.0385353 22.6440847,19.59082 22.0918,19.59082 Z" id="Path"></path>
            <path d="M45.17383,31.01123 L37.35938,31.01123 L37.35938,23.19629 C37.35938,22.6440053 36.9116647,22.19629 36.35938,22.19629 C35.8070953,22.19629 35.35938,22.6440053 35.35938,23.19629 L35.35938,31.01123 L27.544,31.01123 C26.9917153,31.01123 26.544,31.4589453 26.544,32.01123 C26.544,32.5635147 26.9917153,33.01123 27.544,33.01123 L35.35943,33.01123 L35.35943,40.82568 C35.35943,41.3779647 35.8071453,41.82568 36.35943,41.82568 C36.9117147,41.82568 37.35943,41.3779647 37.35943,40.82568 L37.35943,33.01123 L45.17388,33.01123 C45.7261647,33.01123 46.17388,32.5635147 46.17388,32.01123 C46.17388,31.4589453 45.7261647,31.01123 45.17388,31.01123 L45.17383,31.01123 Z" id="Path"></path>
        </g>
    </g>
</svg>