<svg  viewBox="0 0 15 15" fill="none" xmlns="http://www.w3.org/2000/svg">
<path d="M11.3061 0.633756L7.5 5.625L3.69393 0.633756C2.84892 -0.211252 1.47876 -0.211252 0.633755 0.633756C-0.211252 1.47876 -0.211252 2.84892 0.633755 3.69393L5.625 7.5L0.633755 11.3061C-0.211252 12.1511 -0.211252 13.5212 0.633755 14.3662C1.47876 15.2113 2.84892 15.2113 3.69393 14.3662L7.5 8.625L11.3061 14.3662C12.1511 15.2113 13.5212 15.2113 14.3662 14.3662C15.2113 13.5212 15.2113 12.1511 14.3662 11.3061L9.75 7.5L14.3662 3.69393C15.2113 2.84892 15.2113 1.47876 14.3662 0.633756C13.5212 -0.211252 12.1511 -0.211252 11.3061 0.633756Z"/>
</svg>
