<svg xmlns="http://www.w3.org/2000/svg" width="41" height="32" viewBox="0 0 41 32">
    <g fill="none">
        <path fill="#FFA000" d="M34.47.026H5.885C3.57.023 1.69 1.897 1.685 4.213c0 .188.012.377.037.563.06.46.481.786.942.726.112-.014.22-.051.317-.109.371-.215.794-.327 1.223-.322h5.986c1.08.003 2.04.69 2.39 1.711l.144.461c.578 1.713 2.182 2.867 3.99 2.872H36.15c.441 0 .874.116 1.256.336.13.076.276.115.426.115.464 0 .84-.377.84-.841V4.23c0-2.322-1.882-4.204-4.203-4.204z"/>
        <path fill="#FFC107" d="M38.258 9.002c-.64-.373-1.367-.569-2.107-.569H16.714c-1.08-.002-2.04-.69-2.391-1.711l-.143-.46c-.579-1.713-2.183-2.868-3.99-2.873H4.204c-.723-.007-1.434.18-2.059.543C.82 4.674 0 6.074 0 7.592V27.77c0 2.322 1.882 4.204 4.204 4.204H36.15c2.322 0 4.204-1.882 4.204-4.204V12.637c.005-1.5-.796-2.888-2.097-3.635z"/>
        <path fill="#FFA000" d="M20.11 14c.177 0 .342.089.44.236l4.6 6.76c.092.162.093.36.003.523-.09.163-.257.268-.443.277h-1.961v2.024c0 1.402-1.092 2.549-2.472 2.635l-.167.005c-1.458 0-2.64-1.182-2.64-2.64l-.001-2.024h-1.96c-.154-.007-.296-.082-.392-.2l-.05-.077c-.09-.163-.089-.361.003-.523l4.6-6.76c.098-.147.263-.236.44-.236z"/>
    </g>
</svg>
