<svg xmlns="http://www.w3.org/2000/svg" width="30" height="34" viewBox="0 0 30 34">
    <g fill="none">
        <path fill="#E2E5E7" d="M6.375 0C5.206 0 4.25.956 4.25 2.125v29.75c0 1.169.956 2.125 2.125 2.125h21.25c1.169 0 2.125-.956 2.125-2.125V8.5L21.25 0H6.375z"/>
        <path fill="#B0B7BD" d="M23.375 8.5h6.375L21.25 0v6.375c0 1.169.956 2.125 2.125 2.125z"/>
        <path fill="#CAD1D8" d="M29.75 14.875L23.375 8.5 29.75 8.5z"/>
        <path fill="#50BEE8" d="M25.5 27.625c0 .584-.478 1.063-1.063 1.063H1.063C.479 28.688 0 28.209 0 27.625V17c0-.584.478-1.063 1.063-1.063h23.375c.584 0 1.062.479 1.062 1.063v10.625z"/>
        <g fill="#FFF">
            <path d="M2.986.674c0-.714 1.122-.714 1.122 0V4.03c0 1.334-.637 2.142-2.107 2.142-.722 0-1.325-.197-1.852-.876-.433-.518.383-1.265.825-.722.357.442.74.544 1.112.527.475-.017.893-.231.901-1.071V.674zM5.601.674c0-.28.221-.586.578-.586h1.962c1.105 0 2.1.74 2.1 2.157 0 1.343-.995 2.09-2.1 2.09H6.723v1.123c0 .374-.238.585-.544.585-.28 0-.578-.211-.578-.585V.674zm1.122.484v2.116h1.418c.57 0 1.02-.502 1.02-1.03 0-.593-.45-1.086-1.02-1.086H6.723zM16.308 5.39c-.604.501-1.343.714-2.09.714-1.785 0-3.05-1.02-3.05-3.042 0-1.715 1.334-3.049 3.125-3.049.672 0 1.41.229 1.937.747.518.51-.23 1.266-.738.816-.315-.306-.757-.535-1.199-.535-1.027 0-2.02.823-2.02 2.02 0 1.259.831 2.024 1.945 2.024.517 0 .96-.154 1.274-.383V3.658h-1.274c-.757 0-.68-1.037 0-1.037h1.699c.314 0 .602.238.602.501v1.81c0 .153-.067.295-.211.458z" transform="translate(4.316 19.457)"/>
        </g>
        <path fill="#CAD1D8" d="M24.438 28.688H4.25v1.062h20.188c.584 0 1.062-.478 1.062-1.063v-1.062c0 .584-.478 1.063-1.063 1.063z"/>
    </g>
</svg>
