<svg xmlns="http://www.w3.org/2000/svg" width="20" height="20" viewBox="0 0 20 20">
    <path fill="#0C3C3D" fill-rule="evenodd" d="M18.512 19.013H1.488c-.816 0-1.477-.579-1.477-1.293V2.282C.011 1.569.672.99 1.488.99h17.024c.815 0 1.476.579 1.476 1.292V17.72c0 .714-.661 1.293-1.476 1.293zM3.473 16.044h2.942V7.907H3.473v8.137zM4.964 3.985c-1.007 0-1.664.607-1.664 1.406 0 .78.638 1.406 1.625 1.406h.019c1.026 0 1.664-.626 1.664-1.406-.018-.799-.638-1.406-1.644-1.406zm12.059 7.394c0-2.5-1.452-3.663-3.387-3.663-1.562 0-2.26.789-2.651 1.344V7.907H8.043c.039.764 0 8.137 0 8.137h2.942V11.5c0-.242.019-.486.097-.659.212-.486.697-.989 1.509-.989 1.065 0 1.49.746 1.49 1.84v4.352h2.942v-4.665zm-6.058-2.292l.02-.027v.027h-.02z"/>
</svg>
