<svg xmlns="http://www.w3.org/2000/svg" width="30" height="34" viewBox="0 0 30 34">
    <g fill="none">
        <path fill="#E2E5E7" d="M6.375 0C5.206 0 4.25.956 4.25 2.125v29.75c0 1.169.956 2.125 2.125 2.125h21.25c1.169 0 2.125-.956 2.125-2.125V8.5L21.25 0H6.375z"/>
        <path fill="#B0B7BD" d="M23.375 8.5h6.375L21.25 0v6.375c0 1.169.956 2.125 2.125 2.125z"/>
        <path fill="#CAD1D8" d="M29.75 14.875L23.375 8.5 29.75 8.5z"/>
        <path fill="#F15642" d="M25.5 27.625c0 .584-.478 1.063-1.063 1.063H1.063C.479 28.688 0 28.209 0 27.625V17c0-.584.478-1.063 1.063-1.063h23.375c.584 0 1.062.479 1.062 1.063v10.625z"/>
        <g fill="#FFF">
            <path d="M.05.608C.05.328.27.02.625.02H2.59c1.105 0 2.1.74 2.1 2.157 0 1.343-.995 2.091-2.1 2.091H1.17v1.122c0 .374-.238.586-.544.586-.28 0-.577-.212-.577-.586V.608zm1.12.483v2.117H2.59c.57 0 1.02-.503 1.02-1.03 0-.594-.45-1.087-1.02-1.087H1.17zM6.352 5.977c-.28 0-.586-.153-.586-.526V.625c0-.305.306-.527.586-.527h1.946c3.882 0 3.797 5.879.076 5.879H6.352zm.536-4.842V4.94h1.41c2.294 0 2.396-3.806 0-3.806h-1.41zM13.472 1.203v1.35h2.166c.306 0 .612.306.612.603 0 .28-.306.51-.612.51h-2.166V5.45c0 .297-.211.526-.509.526-.374 0-.602-.229-.602-.526V.624c0-.305.23-.527.602-.527h2.982c.374 0 .595.222.595.527 0 .272-.22.578-.595.578h-2.473z" transform="translate(4.582 19.523)"/>
        </g>
        <path fill="#CAD1D8" d="M24.438 28.688H4.25v1.062h20.188c.584 0 1.062-.478 1.062-1.063v-1.062c0 .584-.478 1.063-1.063 1.063z"/>
    </g>
</svg>
