<svg xmlns="http://www.w3.org/2000/svg" width="30" height="34" viewBox="0 0 30 34">
    <g fill="none">
        <path fill="#E2E5E7" d="M6.375 0C5.206 0 4.25.956 4.25 2.125v29.75c0 1.169.956 2.125 2.125 2.125h21.25c1.169 0 2.125-.956 2.125-2.125V8.5L21.25 0H6.375z"/>
        <path fill="#B0B7BD" d="M23.375 8.5h6.375L21.25 0v6.375c0 1.169.956 2.125 2.125 2.125z"/>
        <path fill="#CAD1D8" d="M29.75 14.875L23.375 8.5 29.75 8.5z"/>
        <path fill="#A066AA" d="M25.5 27.625c0 .584-.478 1.063-1.063 1.063H1.063C.479 28.688 0 28.209 0 27.625V17c0-.584.478-1.063 1.063-1.063h23.375c.584 0 1.062.479 1.062 1.063v10.625z"/>
        <g fill="#FFF">
            <path d="M.054.674c0-.28.22-.587.577-.587h1.964c1.104 0 2.098.74 2.098 2.158 0 1.343-.994 2.09-2.098 2.09h-1.42v1.121c0 .376-.237.587-.544.587-.28 0-.577-.211-.577-.587V.674zm1.12.484v2.115h1.42c.568 0 1.018-.501 1.018-1.028 0-.595-.45-1.087-1.018-1.087h-1.42zM5.776.76c0-.308.068-.604.51-.604.305 0 .374.076.602.296L9.7 3.97V.674c0-.28.245-.587.535-.587.306 0 .603.307.603.587v4.782c0 .376-.23.518-.451.587-.296 0-.442-.068-.687-.296l-2.812-3.57v3.28c0 .376-.23.587-.535.587-.306 0-.578-.211-.578-.586V.759zM17.228 5.39c-.603.5-1.343.714-2.09.714-1.784 0-3.05-1.02-3.05-3.042 0-1.716 1.335-3.05 3.126-3.05.671 0 1.41.23 1.937.748.518.51-.23 1.266-.739.816-.314-.307-.756-.535-1.198-.535-1.027 0-2.02.823-2.02 2.02 0 1.259.831 2.023 1.944 2.023.518 0 .96-.153 1.274-.383V3.658H15.14c-.757 0-.68-1.038 0-1.038h1.698c.315 0 .603.239.603.502v1.81c0 .152-.067.295-.212.458z" transform="translate(3.984 19.457)"/>
        </g>
        <path fill="#CAD1D8" d="M24.438 28.688H4.25v1.062h20.188c.584 0 1.062-.478 1.062-1.063v-1.062c0 .584-.478 1.063-1.063 1.063z"/>
    </g>
</svg>
