<svg xmlns="http://www.w3.org/2000/svg" width="21" height="16" viewBox="0 0 21 16">
    <path fill="#0C3C3D" fill-rule="evenodd" d="M21.008 1.896a9.062 9.062 0 0 1-2.475.635c.89-.5 1.573-1.292 1.895-2.234a9.05 9.05 0 0 1-2.738.98A4.437 4.437 0 0 0 14.545.001c-2.38 0-4.311 1.809-4.311 4.039 0 .317.038.626.112.921-3.582-.169-6.758-1.777-8.884-4.22a3.829 3.829 0 0 0-.583 2.031c0 1.4.761 2.638 1.917 3.362a4.527 4.527 0 0 1-1.952-.506v.052c0 1.957 1.485 3.589 3.457 3.96a4.696 4.696 0 0 1-1.946.07c.548 1.603 2.14 2.772 4.026 2.805a9.023 9.023 0 0 1-5.353 1.728c-.348 0-.691-.019-1.028-.056a12.81 12.81 0 0 0 6.607 1.815c7.928 0 12.263-6.156 12.263-11.493 0-.176-.005-.349-.013-.523a8.503 8.503 0 0 0 2.151-2.09z"/>
</svg>
