<svg xmlns="http://www.w3.org/2000/svg" width="28" height="28" viewBox="0 0 28 28">
    <g fill="none">
        <circle cx="14" cy="13.92" r="13.69" fill="#EAECF0"/>
        <path fill="#FFF" d="M19 12.47v-2.25c.01-1.805-.953-3.475-2.52-4.37-1.547-.893-3.453-.893-5 0-1.552.905-2.498 2.574-2.48 4.37v2.25c0 1.58.842 3.04 2.21 3.83 1.752 1.009 3.908 1.009 5.66 0 1.337-.81 2.147-2.266 2.13-3.83zM14 27.6c3.508.001 6.882-1.349 9.42-3.77-1.99-3.302-5.565-5.32-9.42-5.32-3.855 0-7.43 2.018-9.42 5.32 2.538 2.421 5.912 3.771 9.42 3.77z"/>
    </g>
</svg>
