<svg width="238" height="238" viewBox="0 0 238 238" fill="none" xmlns="http://www.w3.org/2000/svg">
<circle cx="119" cy="119" r="119" fill="#748CAD" fill-opacity="0.3"/>
<path d="M203.167 120L168.073 88.2605H76.927L41.8333 120L37 114.605L74.1527 81H170.847L208 114.605L203.167 120Z" fill="#748CAD"/>
<path d="M197.312 178H47.6875C41.7933 178 37 173.129 37 167.139V114.642H94V118.262C94 127.246 101.191 134.554 110.031 134.554H134.969C143.809 134.554 151 127.246 151 118.262V114.642H208V167.139C208 173.129 203.207 178 197.312 178ZM44.125 121.882V167.139C44.125 169.135 45.7228 170.759 47.6875 170.759H197.312C199.277 170.759 200.875 169.135 200.875 167.139V121.882H157.852C156.134 133.148 146.525 141.795 134.969 141.795H110.031C98.4745 141.795 88.8664 133.148 87.1475 121.882H44.125Z" fill="#748CAD"/>
<path d="M88.0996 35.4325L100.569 55.0181L94.5572 58.8419L82.0882 39.2562L88.0996 35.4325Z" fill="#748CAD"/>
<path d="M158.683 35.4268L164.694 39.2499L152.228 58.8356L146.216 55.0125L158.683 35.4268Z" fill="#748CAD"/>
<path d="M128.016 32H119.742V54.0377H128.016V32Z" fill="#748CAD"/>
</svg>
