<?xml version="1.0" encoding="iso-8859-1"?>
<!-- Generator: Adobe Illustrator 19.0.0, SVG Export Plug-In . SVG Version: 6.00 Build 0)  -->
<svg version="1.1" id="Layer_1" xmlns="http://www.w3.org/2000/svg" xmlns:xlink="http://www.w3.org/1999/xlink" x="0px" y="0px"
	 viewBox="0 0 512.001 512.001" style="enable-background:new 0 0 512.001 512.001;" xml:space="preserve">
<g>
	<path style="fill:#65DDB9;" d="M305.081,4.767l-22.599,85.539c-17.311-2.71-34.948-2.71-52.259,0L207.272,4.767
		c32.415-6.356,65.748-6.356,98.163,0C305.434,4.767,305.081,4.767,305.081,4.767z"/>
	<path style="fill:#65DDB9;" d="M195.796,99.487c-16.384,6.356-31.638,15.298-45.197,26.483L88.276,62.941
		c24.841-21.734,53.689-38.409,84.921-49.081L195.796,99.487z"/>
	<path style="fill:#65DDB9;" d="M125.617,150.599c-11.185,13.559-20.127,28.813-26.483,45.197l-85.628-22.952
		c10.823-31.135,27.613-59.86,49.434-84.568L125.617,150.599z"/>
	<path style="fill:#65DDB9;" d="M88.276,256c-0.018,8.863,0.662,17.726,2.03,26.483L4.767,305.435
		c-6.356-32.415-6.356-65.748,0-98.163l85.539,22.246C88.938,238.283,88.258,247.137,88.276,256z"/>
	<path style="fill:#65DDB9;" d="M125.617,361.402l-62.676,62.323c-21.734-24.841-38.409-53.689-49.081-84.921l85.628-22.952
		C105.702,332.332,114.529,347.719,125.617,361.402z"/>
	<path style="fill:#65DDB9;" d="M195.796,412.513l-22.952,85.628c-31.108-10.717-59.833-27.392-84.568-49.081l62.676-62.676
		C164.423,397.409,179.562,406.228,195.796,412.513z"/>
	<path style="fill:#65DDB9;" d="M305.081,507.233c-32.415,6.356-65.748,6.356-98.163,0l22.599-85.539
		c17.311,2.71,34.948,2.71,52.259,0L305.081,507.233z"/>
	<path style="fill:#65DDB9;" d="M423.724,449.06c-24.841,21.734-53.689,38.409-84.921,49.081l-22.952-85.628
		c16.384-6.356,31.638-15.298,45.197-26.483L423.724,449.06z"/>
	<path style="fill:#65DDB9;" d="M498.141,339.156c-10.717,31.108-27.392,59.833-49.081,84.568l-62.676-62.676
		c11.185-13.559,20.127-28.813,26.483-45.197L498.141,339.156z"/>
	<path style="fill:#65DDB9;" d="M512,256c0.035,16.481-1.562,32.918-4.767,49.081l-85.539-22.599c2.71-17.311,2.71-34.948,0-52.259
		l85.539-22.952C510.411,223.321,512.009,239.643,512,256z"/>
	<path style="fill:#65DDB9;" d="M498.141,172.844l-85.628,22.952c-6.356-16.384-15.298-31.638-26.483-45.197l62.676-62.676
		C470.563,112.737,487.362,141.586,498.141,172.844z"/>
	<path style="fill:#65DDB9;" d="M423.724,62.941l-62.676,62.676c-13.559-11.185-28.813-20.127-45.197-26.483l22.952-85.628
		C370.061,24.294,398.91,41.084,423.724,62.941z"/>
</g>
<g>
</g>
<g>
</g>
<g>
</g>
<g>
</g>
<g>
</g>
<g>
</g>
<g>
</g>
<g>
</g>
<g>
</g>
<g>
</g>
<g>
</g>
<g>
</g>
<g>
</g>
<g>
</g>
<g>
</g>
</svg>
