<svg xmlns="http://www.w3.org/2000/svg" width="28" height="28" viewBox="0 0 28 28">
    <path fill="#3E83FF" d="M1.923 20.53c-.109-.001-.218-.01-.326-.03-.557-1.058-.974-2.184-1.242-3.35.2.043.404.065.609.065 2.69-.097 4.146-2.637 5.315-4.68.178-.31.349-.609.515-.881.418-.688.84-1.505 1.283-2.366 1.33-2.583 2.838-5.512 5.068-6.485 1.948-.85 4.328-1.274 6.449-1.64 1.51.655 2.89 1.574 4.077 2.714-.954.21-1.96.384-2.987.562-2.39.414-4.859.842-6.95 1.754-2.528 1.105-4.117 4.19-5.517 6.91-.432.84-.84 1.636-1.25 2.307-.168.279-.342.583-.523.898-1.057 1.846-2.374 4.143-4.452 4.22l-.069.001zm5.775 1.307c.182-.316.356-.619.524-.898.409-.67.818-1.466 1.249-2.304 1.402-2.722 2.993-5.807 5.522-6.912 2.09-.913 4.56-1.34 6.949-1.755 1.094-.189 2.169-.375 3.175-.604l1.933-.436c-.432-1.11-1.004-2.159-1.702-3.123l-.992.226c-1.021.231-2.112.42-3.223.613-2.333.406-4.746.823-6.734 1.691-2.232.974-3.74 3.906-5.073 6.489-.443.862-.862 1.674-1.281 2.362-.166.275-.337.573-.515.884-1.066 1.855-2.364 4.122-4.534 4.59.706.897 1.52 1.705 2.42 2.405.925-.854 1.642-2.109 2.282-3.228zm1.803 4.621c.406-.67.811-1.464 1.239-2.3 1.392-2.718 2.971-5.799 5.506-6.904 2.091-.913 4.56-1.34 6.949-1.755 1.092-.19 2.169-.376 3.176-.605l1.618-.367c.006-.175.011-.35.011-.526 0-.98-.102-1.958-.304-2.917l-2.08.474c-1.021.231-2.112.42-3.223.613-2.333.406-4.748.823-6.736 1.691-2.232.974-3.74 3.906-5.072 6.489-.444.862-.863 1.674-1.28 2.362-.166.273-.337.57-.514.879-.485.845-1.024 1.785-1.676 2.6.64.362 1.308.674 1.998.931.132-.231.262-.454.388-.665zM14.18 28c.613-2.108 1.455-4.342 3.331-5.22 2.033-.955 4.535-1.37 6.956-1.771.621-.102 1.235-.203 1.83-.314.65-1.19 1.12-2.47 1.398-3.796l-.828.188c-1.018.231-2.109.419-3.221.609-2.341.401-4.762.815-6.733 1.692-2.298 1.025-3.346 3.666-4.455 6.462-.262.66-.524 1.319-.802 1.953.774.131 1.558.197 2.343.197h.18zm10.296-4.717c-2.221.37-4.48.779-6.281 1.623-.942.442-1.66 1.37-2.28 2.962 3.31-.457 6.347-2.084 8.561-4.585zM3.931 5.246c.18-.315.355-.617.524-.895.217-.355.435-.752.66-1.167-1.89 1.55-3.34 3.567-4.206 5.851C2.2 8.268 3.145 6.618 3.931 5.246zM.735 14.998c2.076-.077 3.392-2.371 4.449-4.213.18-.319.355-.624.527-.905.408-.67.817-1.467 1.25-2.306C8.36 4.853 9.95 1.77 12.477.664c.596-.256 1.207-.477 1.83-.66C14.204 0 14.1 0 14 0c-2.02-.005-4.015.431-5.848 1.278-.479.819-.918 1.67-1.335 2.482-.443.863-.862 1.677-1.281 2.364-.167.273-.336.572-.514.876-1.111 1.937-2.48 4.325-4.828 4.649C.064 12.426 0 13.212 0 14c0 .304.01.604.028.902.207.06.421.093.636.097h.071z"/>
</svg>
