<svg xmlns="http://www.w3.org/2000/svg" width="80" height="43" viewBox="0 0 80 43">
    <path fill="#1F2429" fill-rule="evenodd" d="M70.634.906c-1.803 1.118-4.934 7.12-6.963 13.35-1.838 5.645-3.347 8.349-6.205 11.116-1.876 1.817-2.22 1.968-3.151 1.386-1.001-.625-3.042-.404-3.025.328.015.669.768 1.482 1.95 2.104.993.524 1.527.459 3.254-.396 1.83-.905 2.036-.924 1.798-.164-.147.472-1.136 3.33-2.197 6.352-1.882 5.364-1.905 5.52-.983 6.539 1.927 2.129 5.315.874 8.758-3.245 1.071-1.281 2.152-2.204 2.401-2.05.25.155 1.014.14 1.698-.031.961-.242 1.827-1.503 3.817-5.558 1.425-2.904 2.573-4.737 2.573-4.107 0 1.455 2.066 2.825 3.937 2.61 2.213-.255 2.184-1.812-.051-2.746-1.821-.761-1.835-.79-1.835-3.912 0-2.11.522-4.767 1.584-8.07 2.451-7.625 2.512-12.528.136-11.047-1.276.795-2.705 5.392-3.498 11.25-1.005 7.424-4.475 16.154-6.42 16.154-.548 0-1.227.432-1.509.958-.37.69-.892.886-1.868.7-1.562-.3-2.251.483-2.263 2.569-.004.774-.527 2.007-1.162 2.741-1.456 1.685-3.806 2.95-4.225 2.272-.822-1.33 5.178-16.477 8.807-22.23 3.898-6.181 8.342-14.721 8.356-16.057.01-.96-.895-1.75-1.954-1.708-.188.007-.98.409-1.76.892M14.838 2.97c-2.819 3.722-3.88 5.713-5.007 9.398-.571 1.867-3.017 6.874-5.435 11.126C1.978 27.747 0 31.604 0 32.065c0 1.805 1.335.197 4.72-5.683 1.94-3.37 3.722-6.454 3.96-6.854.653-1.098 2.09 2.002 2.09 4.507 0 1.12.14 2.4.31 2.846.31.809 2.766 1.172 2.766.41 0-.92 2.43-3.33 4.037-4.002.951-.399 1.772-.725 1.824-.725.051 0-.129 1.49-.4 3.31-.38 2.535-.341 3.498.162 4.103.925 1.115 1.755.991 3.568-.535 1.486-1.25 2.27-1.109.985.177-.45.45-.435.786.063 1.385 1.092 1.317 1.847.934 5.055-2.567 1.997-2.18 3.207-3.147 3.449-2.756.248.401 1.295.507 3.14.316l2.77-.286-.113 1.913c-.157 2.668.36 3.302 2.382 2.923 1.239-.233 1.756-.11 1.977.466.422 1.1 2.564.973 3.64-.215.496-.548 1.397-1.068 2.002-1.154.98-.14 1.11-.51 1.192-3.362.089-3.056.036-3.205-1.123-3.205-1.389 0-1.634.28-1.997 2.278-.33 1.827-.818 2.343-.818.868 0-1.654-1.39-1.926-2.847-.557l-1.256 1.18v-2.414c0-2.593-.911-3.54-2.299-2.387-.412.341-1.545.8-2.518 1.02-1.938.437-2.875-.099-2.875-1.645 0-.517-.347-1.072-.77-1.235-.824-.316-2.304 1.14-3.637 3.58-1.455 2.665-1.275 1.056.295-2.635 1.808-4.248 1.913-5.233.562-5.233-.63 0-1.607.974-2.704 2.693-2.478 3.883-5.185 7.578-5.397 7.366-.1-.1.28-2.804.847-6.008.576-3.264.834-6.02.586-6.269-.923-.923-2.263-.034-2.953 1.961-.39 1.127-1.053 2.393-1.473 2.813-.676.677-.726.576-.435-.877.516-2.582-.104-4.243-1.585-4.243-1.459 0-2.444 1.318-3.383 4.522-.633 2.16-.665 2.186-1.308 1.026-1.113-2.005-.797-3.73 1.147-6.276 2.474-3.24 5.479-9.81 5.072-11.091-.52-1.64-1.928-1.11-3.872 1.457"/>
</svg>
